<svg xmlns="http://www.w3.org/2000/svg" viewBox="0 0 24 24" fill="none"><linearGradient id="linkedin-gradient" x1="4" y1="20" x2="20" y2="4" gradientUnits="userSpaceOnUse"><stop stop-color="#1a73e8"/><stop offset="1" stop-color="#2656b8"/></linearGradient><rect x="3" y="3" width="18" height="18" rx="4" fill="url(#linkedin-gradient)"/><path d="M9.43 17.2H7.16V9.85h2.26v7.35Zm-1.13-8.36a1.31 1.31 0 1 1 0-2.62 1.31 1.31 0 0 1 0 2.62Zm10.66 8.36h-2.26v-3.79c0-1.01-.02-2.31-1.41-2.31-1.41 0-1.63 1.1-1.63 2.24v3.86h-2.26V9.85h2.17v1.02h.03c.3-.56 1.05-1.15 2.16-1.15 2.31 0 2.74 1.52 2.74 3.49v4.0Z" fill="white"/></svg>
