<svg xmlns="http://www.w3.org/2000/svg" viewBox="0 0 24 24" fill="none"><linearGradient id="tiktok-gradient" x1="4" y1="20" x2="20" y2="4" gradientUnits="userSpaceOnUse"><stop stop-color="#ff0050"/><stop offset="1" stop-color="#00f2ea"/></linearGradient><rect x="3" y="3" width="18" height="18" rx="4" fill="url(#tiktok-gradient)"/><path d="M16.3 10.1c-.78-.47-1.39-1.16-1.69-1.97-.12-.31-.18-.64-.18-.98h-2.04l.01 6.24c0 1.05-.85 1.9-1.9 1.9s-1.9-.85-1.9-1.9c0-.96.72-1.77 1.65-1.88v-2.07c-2.05.11-3.67 1.8-3.67 3.95 0 2.18 1.77 3.95 3.95 3.95s3.95-1.77 3.95-3.95l-.01-3.08c.93.7 2.1 1.12 3.37 1.12v-2.02c-.63 0-1.23-.16-1.79-.44Z" fill="white"/></svg>
